<svg width="179" height="55" viewBox="0 0 179 55" fill="none" xmlns="http://www.w3.org/2000/svg">
<path d="M93.9062 14.8145C93.9062 16.6525 92.4289 18.1325 90.5956 18.1325C88.7622 18.1325 87.286 16.6525 87.286 14.8145C87.286 12.9765 88.7119 11.4965 90.5956 11.4965C92.4808 11.5475 93.9062 13.028 93.9062 14.8145V14.8145ZM80.2588 21.5025V22.3195C80.2588 22.3195 78.6808 20.2765 75.3199 20.2765C69.77 20.2765 65.4409 24.514 65.4409 30.3845C65.4409 36.2045 69.7191 40.4925 75.3199 40.4925C78.7317 40.4925 80.2588 38.3995 80.2588 38.3995V39.267C80.2588 39.6755 80.5651 39.981 80.972 39.981H85.096V20.7855H80.972C80.5651 20.787 80.2588 21.145 80.2588 21.5025V21.5025ZM80.2588 33.805C79.4958 34.9285 77.9676 35.8985 76.1348 35.8985C72.8761 35.8985 70.3804 33.8565 70.3804 30.3845C70.3804 26.913 72.8761 24.871 76.1348 24.871C77.9173 24.871 79.5466 25.892 80.2588 26.964V33.805ZM88.1518 20.787H93.0399V39.9825H88.1518V20.787V20.787ZM161.173 20.276C157.812 20.276 156.233 22.319 156.233 22.319V11.5475H151.345V39.9825H155.47C155.877 39.9825 156.182 39.625 156.182 39.2675V38.4C156.182 38.4 157.761 40.493 161.121 40.493C166.672 40.493 171 36.206 171 30.386C171 24.566 166.672 20.276 161.173 20.276V20.276ZM160.358 35.847C158.473 35.847 156.997 34.878 156.233 33.754V26.913C156.997 25.892 158.626 24.82 160.358 24.82C163.617 24.82 166.112 26.862 166.112 30.3335C166.112 33.805 163.617 35.847 160.358 35.847ZM148.799 28.5985V40.0335H143.91V29.1595C143.91 25.995 142.892 24.718 140.144 24.718C138.668 24.718 137.139 25.484 136.17 26.6075V39.983H131.283V20.7875H135.152C135.559 20.7875 135.865 21.145 135.865 21.5025V22.3195C137.291 20.8385 139.175 20.2765 141.058 20.2765C143.198 20.2765 144.98 20.89 146.406 22.115C148.137 23.5445 148.799 25.382 148.799 28.5985V28.5985ZM119.417 20.276C116.057 20.276 114.478 22.319 114.478 22.319V11.5475H109.59V39.9825H113.714C114.121 39.9825 114.427 39.625 114.427 39.2675V38.4C114.427 38.4 116.006 40.493 119.366 40.493C124.917 40.493 129.245 36.206 129.245 30.386C129.296 24.5655 124.968 20.276 119.417 20.276V20.276ZM118.602 35.847C116.718 35.847 115.242 34.878 114.478 33.754V26.913C115.242 25.892 116.871 24.82 118.602 24.82C121.862 24.82 124.356 26.862 124.356 30.3335C124.356 33.805 121.862 35.847 118.602 35.847ZM105.363 20.276C106.839 20.276 107.603 20.532 107.603 20.532V25.075C107.603 25.075 103.53 23.6965 100.984 26.607V40.033H96.0951V20.787H100.22C100.628 20.787 100.932 21.1445 100.932 21.502V22.319C101.85 21.2465 103.836 20.276 105.363 20.276V20.276ZM54.5955 38.2465C54.3411 37.634 54.0863 36.9705 53.8319 36.4085C53.4239 35.49 53.0165 34.6215 52.6609 33.805L52.61 33.754C49.0959 26.096 45.3285 18.337 41.3561 10.68L41.2035 10.373C40.7857 9.57869 40.3785 8.77879 39.9821 7.97352C39.4724 7.054 38.9637 6.08502 38.1487 5.16551C36.5194 3.12351 34.1768 2 31.6821 2C29.1356 2 26.8444 3.12351 25.1647 5.063C24.4006 5.9815 23.84 6.9515 23.3313 7.87101C22.9339 8.67578 22.5268 9.47567 22.11 10.2705L21.9568 10.5775C18.0358 18.2345 14.217 25.994 10.7034 33.6515L10.652 33.753C10.2959 34.571 9.88797 35.4385 9.4805 36.3565C9.22615 36.9185 8.9718 37.531 8.71745 38.1945C8.05512 40.083 7.85113 41.87 8.10649 43.7085C8.66657 47.5375 11.2121 50.7525 14.7262 52.183C16.0503 52.745 17.4253 53 18.8507 53C19.2582 53 19.7669 52.949 20.1749 52.8975C21.8556 52.6935 23.5867 52.1325 25.2675 51.1625C27.3552 49.988 29.3411 48.304 31.5814 45.8535C33.8217 48.304 35.8586 49.988 37.8954 51.1625C39.5766 52.1325 41.3072 52.6935 42.9875 52.8975C43.3949 52.9495 43.9046 53 44.3121 53C45.738 53 47.1634 52.745 48.4361 52.183C52.0011 50.7525 54.4958 47.4865 55.0563 43.7085C55.4608 41.922 55.2573 40.136 54.5955 38.2465V38.2465ZM31.6308 40.901C28.8807 37.4295 27.0983 34.1625 26.4878 31.4065C26.2335 30.232 26.1821 29.211 26.3352 28.292C26.4364 27.475 26.7427 26.76 27.1501 26.1475C28.1177 24.77 29.7471 23.9015 31.6313 23.9015C33.516 23.9015 35.1962 24.7185 36.1129 26.1475C36.5204 26.76 36.8256 27.4755 36.9284 28.292C37.0805 29.2115 37.0296 30.283 36.7752 31.4065C36.1623 34.1115 34.3798 37.379 31.6308 40.901ZM51.9472 43.3005C51.5911 45.955 49.8086 48.253 47.3139 49.274C46.0921 49.784 44.7674 49.9375 43.4443 49.784C42.1715 49.6305 40.8977 49.222 39.5746 48.457C37.7413 47.435 35.9084 45.8535 33.7693 43.5045C37.1298 39.37 39.1666 35.5915 39.9307 32.223C40.2873 30.64 40.3387 29.211 40.1851 27.883C39.9821 26.607 39.5232 25.4325 38.8105 24.4115C37.231 22.1135 34.5827 20.787 31.6303 20.787C28.6778 20.787 26.0295 22.1655 24.451 24.4115C23.7383 25.4325 23.2795 26.607 23.076 27.883C22.8725 29.211 22.9229 30.691 23.3303 32.223C24.0939 35.5915 26.1816 39.4205 29.4912 43.5555C27.4035 45.904 25.5193 47.487 23.6859 48.508C22.3618 49.274 21.0895 49.6825 19.8168 49.835C18.4422 49.9885 17.1176 49.784 15.9466 49.325C13.4519 48.304 11.6694 46.006 11.3133 43.3515C11.1607 42.0755 11.262 40.7995 11.7717 39.37C11.9238 38.859 12.1791 38.349 12.4335 37.7365C12.7901 36.9195 13.1965 36.051 13.6045 35.1835L13.6559 35.082C17.169 27.475 20.9369 19.7155 24.858 12.1605L25.0106 11.8535C25.4185 11.0885 25.826 10.2715 26.233 9.50552C26.6404 8.68852 27.0983 7.92251 27.6588 7.25851C28.7281 6.03453 30.1535 5.37001 31.7325 5.37001C33.3115 5.37001 34.7369 6.03453 35.8062 7.25851C36.3668 7.92404 36.8246 8.69005 37.232 9.50552C37.64 10.2715 38.0475 11.0885 38.4539 11.8535L38.6071 12.1605C42.4683 19.7469 46.1862 27.4058 49.7588 35.133V35.184C50.1667 36.002 50.5228 36.92 50.9303 37.7381C51.1846 38.3495 51.4395 38.8595 51.5921 39.3705C51.9986 40.6965 52.1512 41.9735 51.9472 43.3005V43.3005Z" fill="#FF5A5F"/>
<rect width="179" height="55" stroke="#D9D9D9"/>
</svg>
