<svg width="188" height="51" viewBox="0 0 188 51" fill="none" xmlns="http://www.w3.org/2000/svg">
<path d="M34.0066 29.3702C31.8026 37.9431 22.8487 43.1581 14.0067 41.0211C5.16936 38.8841 -0.210813 30.2022 1.99427 21.6312C4.19729 13.0583 13.1507 7.84184 21.9896 9.97882C30.8305 12.1158 36.2102 20.7987 34.0061 29.3702H34.0066Z" fill="#54878B"/>
<path d="M52.3256 17.4009C53.9623 17.4009 55.3764 17.6989 56.5641 18.2839C57.7587 18.8747 58.7439 19.6705 59.5342 20.6714C60.3137 21.6775 60.894 22.8533 61.2687 24.2008C61.6408 25.5529 61.8275 27.0049 61.8275 28.5594C61.8275 30.9495 61.3967 33.205 60.5269 35.3324C59.6565 37.463 58.4771 39.3116 56.9759 40.8879C55.4761 42.4623 53.705 43.7028 51.6627 44.6198C49.6236 45.5374 47.4066 45.9962 45.0262 45.9962C44.7184 45.9962 44.1772 45.9872 43.4128 45.9712C42.6484 45.9551 41.7698 45.875 40.7858 45.7405C39.7282 45.5871 38.6792 45.3779 37.6429 45.1138C36.5585 44.8478 35.5049 44.4655 34.5 43.9732L43.3377 6.24567L51.2534 5L48.089 18.3877C48.7471 18.0856 49.4301 17.8428 50.13 17.6624C50.8485 17.4849 51.5856 17.3971 52.325 17.4009H52.3256ZM45.6859 39.6166C46.878 39.6166 48.0007 39.3186 49.0565 38.7343C50.1178 38.1448 51.0491 37.3411 51.7933 36.3724C52.5709 35.3623 53.1828 34.2313 53.6053 33.023C54.0484 31.774 54.2734 30.456 54.2701 29.1284C54.2701 27.4675 53.997 26.1744 53.4527 25.237C52.9084 24.3046 51.9011 23.8356 50.4378 23.8356C49.9585 23.8356 49.3416 23.9285 48.5759 24.0945C47.8077 24.2707 47.1202 24.6366 46.504 25.187L43.134 39.4045C43.3371 39.441 43.5169 39.4756 43.6701 39.5083C43.8202 39.5436 43.9855 39.5685 44.1514 39.5858C44.3261 39.6057 44.526 39.616 44.7676 39.616L45.6853 39.6166H45.6859ZM70.0364 45.2746H62.4759L68.8607 17.9795H76.473L70.0364 45.2746ZM73.7154 14.6539C72.684 14.6626 71.6784 14.3257 70.8544 13.6953C69.9985 13.0597 69.5741 12.0812 69.5741 10.7625C69.5741 10.0371 69.7191 9.35663 70.0074 8.71457C70.2859 8.09261 70.6765 7.52907 71.1591 7.05304C71.6427 6.58407 72.2043 6.20593 72.8179 5.93617C73.4565 5.65894 74.1443 5.51804 74.8387 5.52223C75.8933 5.52223 76.8444 5.84134 77.6972 6.48083C78.5461 7.12353 78.9732 8.10199 78.9732 9.41366C78.9773 10.1217 78.8288 10.822 78.538 11.4654C78.2621 12.088 77.8726 12.6518 77.39 13.127C76.9075 13.5965 76.3456 13.9738 75.7312 14.2406C75.0992 14.5213 74.4294 14.6539 73.7154 14.6539V14.6539ZM83.0987 11.179L91.0175 9.93269L89.073 17.9783H97.5537L96.0223 24.3078H87.5927L85.3473 33.8554C85.1404 34.6506 85.0231 35.3939 84.9903 36.0853C84.9524 36.7792 85.0395 37.3752 85.2438 37.8769C85.4469 38.3799 85.8115 38.7676 86.3413 39.0412C86.8692 39.3199 87.6242 39.4602 88.6144 39.4602C89.43 39.4602 90.2253 39.3814 90.9923 39.2251C91.7803 39.0664 92.556 38.8501 93.3133 38.5779L93.8785 44.4955C92.7934 44.8946 91.6845 45.2231 90.5583 45.479C89.3644 45.7584 87.9509 45.8923 86.3173 45.8923C83.9685 45.8923 82.1476 45.538 80.8502 44.8331C79.5547 44.1232 78.6389 43.1518 78.0908 41.9227C77.5502 40.6989 77.3087 39.2872 77.3762 37.6962C77.4455 36.1019 77.6827 34.4257 78.0908 32.6616L83.0987 11.179V11.179ZM97.2213 34.3757C97.2213 32.0241 97.596 29.8076 98.344 27.7315C99.0914 25.6541 100.168 23.8375 101.565 22.2791C102.957 20.7285 104.653 19.4988 106.649 18.5966C108.635 17.6995 110.86 17.2471 113.311 17.2471C114.846 17.2471 116.217 17.3945 117.423 17.6899C118.634 17.9879 119.729 18.373 120.72 18.8561L118.114 24.8794C117.419 24.5957 116.711 24.3447 115.994 24.1271C115.262 23.8984 114.37 23.7882 113.313 23.7882C110.789 23.7882 108.795 24.6724 107.31 26.4333C105.83 28.1961 105.085 30.5689 105.085 33.5459C105.085 35.3099 105.461 36.7357 106.212 37.8269C106.96 38.9182 108.342 39.4615 110.349 39.4615C111.338 39.4615 112.294 39.3564 113.21 39.1514C114.132 38.9438 114.946 38.6823 115.663 38.3735L116.228 44.548C115.194 44.9511 114.136 45.29 113.061 45.563C111.901 45.8513 110.521 46 108.921 46C106.81 46 105.021 45.6867 103.559 45.0677C102.096 44.4404 100.886 43.6067 99.9335 42.5507C98.976 41.4921 98.2892 40.2555 97.864 38.8374C97.4389 37.4194 97.2207 35.9283 97.2207 34.3757H97.2213ZM130.808 45.9981C129.003 45.9981 127.435 45.7187 126.105 45.1657C124.78 44.6134 123.682 43.8367 122.813 42.8307C121.943 41.8298 121.292 40.6438 120.846 39.277C120.401 37.9109 120.186 36.398 120.186 34.7403C120.186 32.6616 120.514 30.5829 121.179 28.5088C121.84 26.4326 122.821 24.5654 124.118 22.9065C125.407 21.2449 126.996 19.8865 128.866 18.8273C130.734 17.7751 132.883 17.2459 135.298 17.2459C137.07 17.2459 138.629 17.5259 139.977 18.0789C141.319 18.6306 142.424 19.413 143.297 20.4138C144.161 21.4199 144.818 22.6008 145.259 23.9702C145.704 25.3331 145.924 26.8498 145.924 28.5088C145.924 30.581 145.599 32.661 144.957 34.7397C144.313 36.8094 143.357 38.6804 142.096 40.3426C140.837 42.0022 139.263 43.3594 137.371 44.4141C135.484 45.4694 133.293 45.9981 130.808 45.9981V45.9981ZM134.586 23.7888C133.465 23.7888 132.474 24.1188 131.626 24.7718C130.774 25.4324 130.059 26.2635 129.483 27.2644C128.9 28.2704 128.469 29.3674 128.177 30.5599C127.887 31.7549 127.745 32.8859 127.745 33.9579C127.745 35.6899 128.02 37.04 128.56 38.0102C129.108 38.9752 130.093 39.4615 131.523 39.4615C132.648 39.4615 133.634 39.1328 134.487 38.4735C135.334 37.8179 136.05 36.9869 136.63 35.9828C137.209 34.9832 137.645 33.8823 137.937 32.6873C138.223 31.4961 138.369 30.36 138.369 29.2886C138.369 27.5611 138.095 26.209 137.549 25.2395C137.005 24.2739 136.015 23.7882 134.586 23.7882V23.7888ZM154.163 45.2746H146.596L152.981 17.9795H160.597L154.163 45.2746V45.2746ZM157.836 14.6539C156.806 14.6628 155.801 14.3258 154.978 13.6953C154.125 13.0597 153.698 12.0812 153.698 10.7625C153.698 10.0371 153.845 9.35663 154.133 8.71457C154.41 8.09187 154.8 7.52808 155.283 7.05304C155.768 6.58391 156.33 6.20576 156.944 5.93617C157.58 5.65888 158.266 5.51796 158.958 5.52223C160.016 5.52223 160.97 5.84134 161.821 6.48083C162.672 7.12353 163.101 8.10199 163.101 9.41366C163.101 10.1416 162.948 10.8246 162.662 11.4654C162.377 12.1062 161.993 12.6579 161.517 13.127C161.034 13.5954 160.472 13.9725 159.858 14.2406C159.224 14.5213 158.554 14.6539 157.836 14.6539V14.6539ZM166.046 19.2207C166.62 19.0503 167.26 18.8452 167.957 18.6222C168.731 18.3782 169.517 18.172 170.311 18.0045C171.175 17.8123 172.149 17.6553 173.221 17.5342C174.292 17.4105 175.513 17.3503 176.869 17.3503C180.857 17.3503 183.606 18.53 185.123 20.8823C186.639 23.2345 186.902 26.4532 185.918 30.5343L182.44 45.2721H174.83L178.201 30.8437C178.406 29.9435 178.567 29.072 178.687 28.2211C178.808 27.3778 178.8 26.6339 178.66 25.9912C178.536 25.375 178.203 24.8229 177.718 24.4321C177.219 24.0355 176.465 23.8362 175.443 23.8362C174.432 23.8403 173.422 23.9459 172.431 24.1515L167.475 45.2702H159.863L166.046 19.2207V19.2207Z" fill="#4D4D4D"/>
</svg>
