<svg width="24" height="24" viewBox="0 0 24 24" fill="none" xmlns="http://www.w3.org/2000/svg">
<g clip-path="url(#clip0_535_11562)">
<path d="M22.125 0.75H1.875C1.57674 0.750341 1.29079 0.868977 1.07988 1.07988C0.868977 1.29079 0.750341 1.57674 0.75 1.875V18.375C0.750341 18.6733 0.868977 18.9592 1.07988 19.1701C1.29079 19.381 1.57674 19.4997 1.875 19.5H9.62099L8.72099 22.5H7.5V23.25H16.5V22.5H15.279L14.379 19.5H22.125C22.4233 19.4997 22.7092 19.381 22.9201 19.1701C23.131 18.9592 23.2497 18.6733 23.25 18.375V1.875C23.2497 1.57674 23.131 1.29079 22.9201 1.07988C22.7092 0.868977 22.4233 0.750341 22.125 0.75V0.75ZM14.496 22.5H9.50401L10.404 19.5H13.596L14.496 22.5ZM22.5 18.375C22.4999 18.4744 22.4603 18.5697 22.39 18.64C22.3197 18.7103 22.2244 18.7499 22.125 18.75H1.875C1.77558 18.7499 1.68026 18.7103 1.60996 18.64C1.53966 18.5697 1.50011 18.4744 1.5 18.375V17.25H22.5V18.375ZM22.5 16.5H1.5V1.875C1.50011 1.77558 1.53966 1.68026 1.60996 1.60996C1.68026 1.53966 1.77558 1.50011 1.875 1.5H22.125C22.2244 1.50011 22.3197 1.53966 22.39 1.60996C22.4603 1.68026 22.4999 1.77558 22.5 1.875V16.5Z" fill="black"/>
<path d="M20.625 7.125H15.6857C15.6364 7.12514 15.5876 7.1155 15.5421 7.09664C15.4965 7.07778 15.4552 7.05008 15.4205 7.01514L14.3598 5.9545C14.2556 5.84971 14.1316 5.76663 13.9951 5.71007C13.8585 5.65351 13.7121 5.6246 13.5643 5.625H9.375C9.07674 5.62535 8.79079 5.74398 8.57988 5.95489C8.36898 6.16579 8.25034 6.45174 8.25 6.75V14.625C8.25034 14.9233 8.36898 15.2092 8.57988 15.4201C8.79079 15.631 9.07674 15.7497 9.375 15.75H20.625C20.9233 15.7497 21.2092 15.631 21.4201 15.4201C21.631 15.2092 21.7497 14.9233 21.75 14.625V8.25C21.7497 7.95174 21.631 7.66579 21.4201 7.45489C21.2092 7.24398 20.9233 7.12535 20.625 7.125V7.125ZM21 14.625C20.9999 14.7244 20.9603 14.8197 20.89 14.89C20.8197 14.9603 20.7244 14.9999 20.625 15H9.375C9.27558 14.9999 9.18026 14.9603 9.10996 14.89C9.03966 14.8197 9.00011 14.7244 9 14.625V6.75C9.00011 6.65058 9.03966 6.55527 9.10996 6.48496C9.18026 6.41466 9.27558 6.37512 9.375 6.375H13.5643C13.6136 6.37487 13.6624 6.38451 13.7079 6.40337C13.7535 6.42223 13.7948 6.44993 13.8295 6.48487L14.8902 7.54551C14.9944 7.6503 15.1184 7.73338 15.2549 7.78994C15.3915 7.8465 15.5379 7.87541 15.6857 7.875H20.625C20.7244 7.87512 20.8197 7.91466 20.89 7.98496C20.9603 8.05527 20.9999 8.15058 21 8.25V14.625Z" fill="black"/>
<path d="M12.4839 9.10986L10.3438 11.25L12.4839 13.3902L13.0142 12.8599L11.4043 11.25L13.0142 9.64021L12.4839 9.10986Z" fill="black"/>
<path d="M13.9219 12.9497L15.7983 9.57532L16.4537 9.93979L14.5773 13.3142L13.9219 12.9497Z" fill="black"/>
<path d="M16.9844 9.64021L18.5943 11.25L16.9844 12.8599L17.5147 13.3902L19.6548 11.25L17.5147 9.10986L16.9844 9.64021Z" fill="black"/>
<path d="M9.50597 3L10.1132 4.41652L11.4525 4.97142L12.8858 4.39866L13.6274 5.14017L14.1577 4.60983L13.0666 3.51872L11.4576 4.1617L10.6823 3.84047L10.0005 2.25H7.99955L7.31775 3.84047L6.54239 4.1617L4.93341 3.51872L3.51877 4.93341L4.1617 6.54239L3.84047 7.3177L2.25 7.99955V10.0005L3.84042 10.6823L4.1617 11.4576L3.51872 13.0666L4.93336 14.4813L6.54239 13.8383L7.35642 14.1756L7.64358 13.4827L6.54755 13.0286L5.11416 13.6013L4.39866 12.8858L4.97142 11.4525L4.41647 10.1132L3 9.50597V8.49403L4.41652 7.88681L4.97142 6.54755L4.39866 5.11416L5.1142 4.39866L6.54755 4.97142L7.88677 4.41652L8.49403 3H9.50597Z" fill="black"/>
<path d="M7.66688 6.31177L7.33312 5.64014C6.70753 5.95074 6.18107 6.42983 5.81303 7.02345C5.445 7.61708 5.25 8.30166 5.25 9.00012C5.25 9.69858 5.445 10.3832 5.81303 10.9768C6.18107 11.5704 6.70753 12.0495 7.33312 12.3601L7.66688 11.6885C7.1663 11.44 6.74503 11.0567 6.45053 10.5817C6.15604 10.1067 6 9.55898 6 9.00012C6 8.44126 6.15604 7.8935 6.45053 7.41853C6.74503 6.94356 7.1663 6.56025 7.66688 6.31177V6.31177Z" fill="black"/>
</g>
<defs>
<clipPath id="clip0_535_11562">
<rect width="24" height="24" fill="white"/>
</clipPath>
</defs>
</svg>
