<svg width="24" height="24" viewBox="0 0 24 24" fill="none" xmlns="http://www.w3.org/2000/svg">
<g clip-path="url(#clip0_535_11560)">
<path d="M3.67969 4.37695H12.5124C12.7066 4.37695 12.864 4.21959 12.864 4.02539C12.864 3.83119 12.7066 3.67383 12.5124 3.67383H3.67969C3.48548 3.67383 3.32812 3.83119 3.32812 4.02539C3.32812 4.21959 3.48548 4.37695 3.67969 4.37695V4.37695Z" fill="black"/>
<path d="M3.67969 6.81787H12.5124C12.7066 6.81787 12.864 6.66051 12.864 6.46631C12.864 6.27211 12.7066 6.11475 12.5124 6.11475H3.67969C3.48548 6.11475 3.32812 6.27211 3.32812 6.46631C3.32812 6.66051 3.48548 6.81787 3.67969 6.81787V6.81787Z" fill="black"/>
<path d="M8.43014 8.90674C8.43014 8.71254 8.27278 8.55518 8.07858 8.55518H3.67969C3.48548 8.55518 3.32812 8.71254 3.32812 8.90674C3.32812 9.10094 3.48548 9.2583 3.67969 9.2583H8.07863C8.27278 9.2583 8.43014 9.10089 8.43014 8.90674Z" fill="black"/>
<path d="M23.999 18.4573L23.8502 13.1351C23.8501 13.1304 23.8499 13.1258 23.8495 13.1211C23.7824 12.1291 23.0556 11.295 22.0822 11.0928L21.9181 11.0587V9.9792C21.9181 9.785 21.7607 9.62764 21.5665 9.62764C21.3723 9.62764 21.215 9.785 21.215 9.9792V10.9126L19.8595 10.631C19.757 10.6096 19.6826 10.5181 19.6826 10.4134V10.0556C19.9759 9.7858 20.6445 9.25456 20.6686 8.12633C20.6687 8.12394 20.6687 8.12155 20.6687 8.1192L20.6698 7.12297C20.8708 7.22563 21.0626 7.28872 21.215 7.32739V8.57469C21.215 8.76889 21.3723 8.92625 21.5665 8.92625C21.7607 8.92625 21.9181 8.76889 21.9181 8.57469C21.9181 8.18389 21.9181 7.01136 21.9181 6.44684C21.9181 5.18703 21.2559 4.07961 20.2618 3.45233V2.30558H20.6396C21.1134 2.30558 21.499 1.92003 21.499 1.44617V0.914094C21.499 0.440234 21.1134 0.0546875 20.6396 0.0546875H0.859406C0.385547 0.0546875 0 0.440188 0 0.914094V1.44622C0 1.92008 0.385547 2.30563 0.859406 2.30563H1.23717V14.6491H0.859406C0.385547 14.6491 0 15.0346 0 15.5084V16.0406C0 16.5144 0.385547 16.9 0.859406 16.9H14.1975V19.319C14.1975 19.6113 14.2781 19.885 14.4179 20.1195C14.2263 20.3597 14.1053 20.6491 14.0702 20.9602L13.8142 23.2359C13.7717 23.6131 14.0671 23.945 14.448 23.945H21.7402C22.1205 23.945 22.4166 23.6136 22.374 23.2358C22.0998 20.8415 22.0998 20.8415 22.0998 20.8415C22.5655 20.7497 22.9919 20.5198 23.3309 20.1711C23.7797 19.7096 24.017 19.1009 23.999 18.4573V18.4573ZM19.7166 11.3193L20.8564 11.5561C20.6389 12.6788 19.4871 13.5209 18.0941 13.5209C16.701 13.5209 15.5493 12.6789 15.3318 11.5562L16.4716 11.3194C16.8401 11.2428 17.1209 10.9486 17.1912 10.5892C17.4521 10.7515 17.7535 10.872 18.1013 10.8759H18.1052C18.1052 10.8759 18.1078 10.8759 18.1091 10.8759C18.4483 10.8721 18.7433 10.7573 18.9998 10.6011C19.0739 10.955 19.3522 11.2437 19.7166 11.3193V11.3193ZM14.9732 10.9126V7.54109C15.1557 7.59434 15.3441 7.63334 15.5377 7.65833L15.5416 8.12628C15.561 9.03233 15.9792 9.55128 16.5056 10.0352V10.4133C16.5056 10.518 16.4311 10.6096 16.3286 10.6309L14.9732 10.9126ZM19.9657 8.1147C19.947 8.91327 19.4991 9.26909 19.2023 9.542C18.9001 9.82011 18.5242 10.166 18.1052 10.1728C17.6861 10.166 17.3102 9.82006 17.008 9.54195C16.7146 9.272 16.2619 8.91884 16.2447 8.11583L16.2411 7.68884C17.4923 7.63902 18.7884 7.06142 19.8196 6.35947C19.866 6.43269 19.9156 6.50019 19.9674 6.56342L19.9657 8.1147ZM21.215 6.44684V6.59436C20.9009 6.48256 20.4754 6.23769 20.2787 5.70884C20.1953 5.48464 19.9164 5.40725 19.7295 5.55702C19.7029 5.5783 17.127 7.61023 14.9731 6.80225V6.4468C14.9731 4.88309 16.2454 3.61086 17.8091 3.61086H18.379C19.9428 3.61091 21.215 4.88314 21.215 6.44684V6.44684ZM0.859406 1.60245C0.77325 1.60245 0.703125 1.53233 0.703125 1.44617V0.914094C0.703125 0.827938 0.77325 0.757813 0.859406 0.757813H20.6396C20.7258 0.757813 20.7959 0.827938 20.7959 0.914094V1.44622C20.7959 1.53238 20.7258 1.6025 20.6396 1.6025H0.859406V1.60245ZM0.859406 16.1968C0.77325 16.1968 0.703125 16.1267 0.703125 16.0406V15.5084C0.703125 15.4223 0.77325 15.3522 0.859406 15.3522H2.80055C2.99475 15.3522 3.15211 15.1948 3.15211 15.0006C3.15211 14.8064 2.99475 14.649 2.80055 14.649H1.9403V2.30558H19.5587V3.1107C19.1895 2.97973 18.7926 2.90778 18.3791 2.90778H17.8091C15.8577 2.90778 14.2701 4.49539 14.2701 6.44684V11.0587L14.106 11.0928C13.1325 11.295 12.4057 12.1291 12.3386 13.1211L12.284 13.9279C12.2815 13.9672 12.2377 13.9901 12.203 13.9664L10.1728 12.5731C10.0784 12.5084 9.97636 12.4588 9.86831 12.4242C9.73036 12.2536 9.59625 12.1981 9.43214 12.0807C8.97834 11.7785 8.39559 11.817 7.98703 12.1349L5.697 10.5577C5.53711 10.4476 5.3182 10.4879 5.20805 10.6478C5.09789 10.8077 5.1383 11.0266 5.29819 11.1368L7.57781 12.7068C7.50661 12.9123 7.49091 13.1338 7.53478 13.3526C7.5997 13.6763 7.78678 13.9554 8.06156 14.1385C8.30494 14.2994 8.26598 14.2767 8.3257 14.3121C8.39447 14.4408 8.48564 14.5546 8.59622 14.6491H4.19334C3.99914 14.6491 3.84178 14.8064 3.84178 15.0006C3.84178 15.1948 3.99914 15.3522 4.19334 15.3522H9.67078L10.9878 16.1969H0.859406V16.1968ZM9.33689 13.1854L9.0443 13.6247C8.96203 13.7483 8.79455 13.7818 8.67112 13.6995L8.45142 13.5532C8.33292 13.4743 8.25225 13.354 8.22427 13.2144C8.19623 13.0747 8.22431 12.9326 8.30325 12.8142C8.40581 12.6601 8.57527 12.5767 8.74777 12.5767C8.84925 12.5767 8.95181 12.6056 9.04238 12.6659L9.26203 12.8122C9.29775 12.836 9.32569 12.867 9.34575 12.902C9.34688 12.904 9.34814 12.906 9.34936 12.908C9.39516 12.9928 9.39394 13.0997 9.33689 13.1854V13.1854ZM14.521 23.2419L14.7689 21.0389C14.7854 20.8927 14.8354 20.7551 14.9133 20.6342C15.1589 20.7938 15.4514 20.887 15.7654 20.887H21.3887C21.3887 20.887 21.4004 20.9161 21.6672 23.2419H14.521ZM22.8268 19.681C22.5957 19.9187 22.3067 20.0777 21.9907 20.1459V15.5036C21.9907 15.3094 21.8334 15.152 21.6392 15.152C21.445 15.152 21.2876 15.3094 21.2876 15.5036V20.1838H15.7654C15.2885 20.1838 14.9006 19.7959 14.9006 19.319C14.9006 18.776 14.9006 15.9871 14.9006 15.5036C14.9006 15.3094 14.7432 15.152 14.549 15.152C14.3548 15.152 14.1975 15.3094 14.1975 15.5036V16.1968H12.5732C12.396 16.1968 12.2224 16.1482 12.0709 16.0562L9.33361 14.3006C9.45005 14.2282 9.5512 14.132 9.62948 14.0144L9.92208 13.5751C9.97313 13.4984 10.011 13.4169 10.0378 13.3332L11.8047 14.5458C12.286 14.8774 12.946 14.5595 12.9855 13.9753L13.0401 13.1686C13.086 12.49 13.5831 11.9195 14.249 11.7811L14.6425 11.6994C14.928 13.1439 16.3634 14.224 18.0941 14.224C19.8248 14.224 21.2602 13.1439 21.5457 11.6994L21.9392 11.7811C22.6029 11.919 23.099 12.4863 23.1476 13.162L23.2962 18.4769C23.3088 18.9291 23.1421 19.3567 22.8268 19.681V19.681Z" fill="black"/>
</g>
<defs>
<clipPath id="clip0_535_11560">
<rect width="24" height="24" fill="white"/>
</clipPath>
</defs>
</svg>
