<svg width="24" height="24" viewBox="0 0 24 24" fill="none" xmlns="http://www.w3.org/2000/svg">
<g clip-path="url(#clip0_535_11563)">
<path d="M7.875 19.875H8.625V20.625H7.875V19.875Z" fill="black"/>
<path d="M7.875 21.375H8.625V22.125H7.875V21.375Z" fill="black"/>
<path d="M16.5161 12.375C16.8559 12.375 17.1758 12.2254 17.3929 11.9644L18.9259 10.125H21.75C22.7839 10.125 23.625 9.28387 23.625 8.25V4.5C23.625 3.46613 22.7839 2.625 21.75 2.625H19.875C19.875 1.38412 18.8659 0.375 17.625 0.375C16.3841 0.375 15.375 1.38412 15.375 2.625H13.5C12.4661 2.625 11.625 3.46613 11.625 4.5V6.57037C10.9114 5.98012 9.99638 5.625 9 5.625H8.625C7.3815 5.625 6.19125 6.19688 5.41275 7.16213C4.22588 7.44863 3.375 8.52037 3.375 9.75C3.375 11.0445 3.93 12.258 4.89525 13.1134C5.02087 14.2796 5.7435 15.2666 6.75 15.7687V16.578L4.13325 17.1937C1.92038 17.7142 0.375 19.6658 0.375 21.939V23.625H16.125V21.939C16.125 21.2044 15.9615 20.5046 15.6686 19.875H17.0741L18.6071 21.714C18.8242 21.9754 19.1441 22.125 19.4839 22.125C20.1131 22.125 20.625 21.6131 20.625 20.9839V19.875H21.75C22.7839 19.875 23.625 19.0339 23.625 18V15C23.625 13.9661 22.7839 13.125 21.75 13.125H14.25C13.2161 13.125 12.375 13.9661 12.375 15V17.196C12.372 17.1952 12.3694 17.1941 12.3668 17.1937L9.75 16.578V15.7687C10.7565 15.2666 11.4791 14.2793 11.6047 13.1134C12.4759 12.3413 13.0087 11.2774 13.1044 10.125H15.375V11.2339C15.375 11.8631 15.8869 12.375 16.5161 12.375V12.375ZM17.625 1.125C18.4523 1.125 19.125 1.79775 19.125 2.625C19.125 3.45225 18.4523 4.125 17.625 4.125C16.7977 4.125 16.125 3.45225 16.125 2.625C16.125 1.79775 16.7977 1.125 17.625 1.125ZM6.97238 17.2961L7.78125 18.375L6.90787 19.5394L6.15262 17.4889L6.97238 17.2961ZM8.25 18.9998L9.2835 20.3775L8.36362 22.875H8.13675L7.21688 20.3775L8.25 18.9998ZM1.125 21.939C1.125 20.0153 2.43262 18.3641 4.30537 17.9235L5.4165 17.6621L7.33725 22.875H4.125V20.625H3.375V22.875H1.125V21.939ZM13.125 15C13.125 14.3797 13.6297 13.875 14.25 13.875H21.75C22.3703 13.875 22.875 14.3797 22.875 15V18C22.875 18.6203 22.3703 19.125 21.75 19.125H19.875V20.9839C19.875 21.1995 19.6995 21.375 19.4839 21.375C19.3673 21.375 19.2577 21.3236 19.1835 21.2344L17.4259 19.125H15.2325C14.7116 18.387 13.9883 17.7968 13.125 17.4394V15ZM15.375 21.939V22.875H13.125V20.625H12.375V22.875H9.16275L11.0831 17.6621L12.1943 17.9235C14.0674 18.3645 15.375 20.0156 15.375 21.939ZM10.3477 17.4893L9.5925 19.5397L8.71875 18.375L9.52762 17.2961L10.3477 17.4893ZM9 16.7501L8.25 17.7502L7.5 16.7501V16.038C7.7415 16.0931 7.992 16.125 8.25 16.125C8.508 16.125 8.7585 16.0931 9 16.038V16.7501ZM10.875 12.75C10.875 14.1975 9.69712 15.375 8.25 15.375C6.80288 15.375 5.625 14.1975 5.625 12.75V10.9886C5.625 10.719 5.844 10.5 6.11362 10.5C6.21037 10.5 6.30412 10.5285 6.38475 10.5821L7.38638 11.25H9.75C10.3703 11.25 10.875 11.7547 10.875 12.375V12.75ZM11.5916 12.0435C11.4337 11.1679 10.6702 10.5 9.75 10.5H7.61362L6.80063 9.95813C6.59663 9.822 6.35887 9.75 6.11362 9.75C5.43037 9.75 4.875 10.3054 4.875 10.9886V11.9951C4.3935 11.3531 4.125 10.5709 4.125 9.75C4.125 8.84175 4.7715 8.05312 5.6625 7.875L5.8395 7.83938L5.925 7.725C6.55913 6.87975 7.56863 6.375 8.625 6.375H9C10.8611 6.375 12.375 7.88925 12.375 9.75C12.375 10.5911 12.0956 11.3929 11.5916 12.0435ZM13.1059 9.375C13.0391 8.63925 12.7781 7.95937 12.375 7.38562V4.5C12.375 3.87975 12.8797 3.375 13.5 3.375H15.5062C15.6502 3.78075 15.9064 4.1325 16.239 4.39388C14.856 4.94625 13.875 6.297 13.875 7.875V8.625H21.375V7.875C21.375 6.297 20.394 4.94625 19.011 4.39388C19.3436 4.1325 19.5998 3.78075 19.7438 3.375H21.75C22.3703 3.375 22.875 3.87975 22.875 4.5V8.25C22.875 8.87025 22.3703 9.375 21.75 9.375H18.5741L16.8161 11.4844C16.7422 11.5736 16.6327 11.625 16.5161 11.625C16.3005 11.625 16.125 11.4495 16.125 11.2339V9.375H13.1059ZM17.625 4.875C19.2791 4.875 20.625 6.22088 20.625 7.875H14.625C14.625 6.22088 15.9709 4.875 17.625 4.875Z" fill="black"/>
<path d="M13.875 14.625H22.125V15.375H13.875V14.625Z" fill="black"/>
<path d="M13.875 16.125H22.125V16.875H13.875V16.125Z" fill="black"/>
<path d="M15.375 17.625H20.625V18.375H15.375V17.625Z" fill="black"/>
<path d="M21.375 17.625H22.125V18.375H21.375V17.625Z" fill="black"/>
</g>
<defs>
<clipPath id="clip0_535_11563">
<rect width="24" height="24" fill="white"/>
</clipPath>
</defs>
</svg>
