<svg width="24" height="24" viewBox="0 0 24 24" fill="none" xmlns="http://www.w3.org/2000/svg">
<g clip-path="url(#clip0_535_11564)">
<path d="M22.0091 5.98058H21.7658C21.622 5.47552 21.4211 4.99094 21.1658 4.53279L21.3387 4.35983C21.5365 4.16207 21.6454 3.89831 21.6454 3.61711C21.6454 3.33592 21.5365 3.0722 21.3385 2.87421L20.1864 1.72341C19.9885 1.52434 19.7244 1.41475 19.4427 1.41475C19.1611 1.41475 18.8969 1.52434 18.7001 1.72242L18.5273 1.89515C18.0689 1.63899 17.5841 1.43771 17.0793 1.29395V1.05072C17.0794 0.471363 16.6081 0 16.0287 0H14.3997C13.8204 0 13.349 0.471363 13.349 1.05072V1.29395C12.8443 1.43767 12.3593 1.63899 11.8999 1.89534L11.728 1.72341C11.53 1.52434 11.2659 1.41475 10.9843 1.41479C10.7026 1.41479 10.4385 1.52443 10.2416 1.72247L9.08971 2.87444C8.89185 3.0722 8.78296 3.33596 8.78296 3.61716C8.78296 3.89835 8.89185 4.16207 9.08966 4.35983L9.26253 4.53274C9.00608 4.99229 8.80509 5.47697 8.66208 5.98058H8.41791C7.83855 5.98058 7.36719 6.45195 7.36719 7.03131V8.66167C7.36719 9.24103 7.83855 9.71239 8.41791 9.71239H8.66208C8.80509 10.216 9.00608 10.7006 9.26253 11.1602L9.08966 11.3331C8.8918 11.5309 8.78292 11.7947 8.78292 12.0759C8.78292 12.357 8.89181 12.6208 9.08961 12.8185L10.2406 13.9696C10.4385 14.1686 10.7025 14.2782 10.9842 14.2782H10.9843C11.2659 14.2782 11.5301 14.1686 11.727 13.9706L11.8998 13.7976C12.3597 14.0542 12.8448 14.2553 13.3489 14.3982V14.6423C13.3489 15.2217 13.8203 15.693 14.3997 15.693H16.0286C16.608 15.693 17.0793 15.2217 17.0793 14.6423V14.3982C17.5837 14.2552 18.0683 14.0543 18.5273 13.7978L18.6991 13.9696C18.8969 14.1686 19.161 14.2782 19.4427 14.2782C19.7244 14.2782 19.9885 14.1686 20.1852 13.9707L21.3387 12.8185C21.5365 12.6207 21.6454 12.357 21.6454 12.0758C21.6454 11.7946 21.5365 11.5309 21.3387 11.3331L21.1657 11.1602C21.4211 10.702 21.6219 10.2175 21.7658 9.71239H22.0091C22.5884 9.71239 23.0598 9.24103 23.0598 8.66167V7.03131C23.0598 6.45195 22.5885 5.98058 22.0091 5.98058V5.98058ZM16.1419 14.6423C16.1419 14.7037 16.0901 14.7555 16.0287 14.7555H14.3997C14.3383 14.7555 14.2865 14.7037 14.2865 14.6423V14.0337V11.0786C14.2865 10.8826 14.1645 10.7073 13.9808 10.6391C12.7212 10.172 11.8749 8.95974 11.8749 7.62262C11.8749 6.56294 12.4026 5.56959 13.2861 4.96562C13.3258 4.93853 13.3608 4.91641 13.3915 4.89827C13.3898 4.9592 13.3855 5.01714 13.3832 5.04737C13.3797 5.09495 13.3769 5.13249 13.3769 5.16976V7.38206C13.3769 8.39749 14.1703 9.24553 15.1831 9.3127C15.2038 9.31406 15.2245 9.31406 15.2452 9.3127C16.2573 9.24558 17.0501 8.39754 17.0501 7.38206V5.16976C17.0501 5.13268 17.0473 5.09537 17.0439 5.04807C17.0416 5.0177 17.0373 4.95944 17.0357 4.89822C17.0662 4.91631 17.1011 4.93839 17.1406 4.96544C18.0244 5.56955 18.5521 6.5629 18.5521 7.62257C18.5521 8.95955 17.7063 10.1719 16.4474 10.6391C16.2637 10.7073 16.1418 10.8826 16.1418 11.0786V14.0336V14.6423H16.1419ZM22.1224 8.66167C22.1224 8.722 22.0694 8.77492 22.0091 8.77492H21.4019C21.1829 8.77492 20.9931 8.92655 20.9447 9.14016C20.7963 9.79606 20.5392 10.4163 20.1806 10.9836C20.0635 11.1689 20.0904 11.4105 20.2453 11.5655L20.6759 11.996C20.7038 12.024 20.708 12.058 20.708 12.0758C20.708 12.0936 20.7038 12.1277 20.676 12.1554L19.5216 13.3086C19.4952 13.3351 19.4641 13.3407 19.4427 13.3407C19.4214 13.3407 19.3904 13.3351 19.363 13.3076L18.9325 12.877C18.7773 12.7219 18.5353 12.6952 18.3501 12.8125C17.95 13.0661 17.5241 13.2673 17.0794 13.4159V11.3904C18.5336 10.7136 19.4896 9.23883 19.4896 7.62252C19.4896 6.25301 18.8093 4.97036 17.6698 4.19146C17.4952 4.07216 16.9644 3.70922 16.5001 3.97645C16.0442 4.23894 16.0896 4.85425 16.109 5.11703C16.1107 5.13985 16.1123 5.15903 16.1127 5.16976V7.38206C16.1127 7.89514 15.7205 8.3253 15.2142 8.37476C14.7072 8.32526 14.3144 7.8951 14.3144 7.38206L14.3144 5.17313C14.3148 5.15902 14.3165 5.13985 14.3182 5.11693C14.3377 4.8543 14.3835 4.23931 13.928 3.97668C13.4639 3.70898 12.9322 4.07207 12.7573 4.19146C11.6178 4.9704 10.9374 6.25306 10.9374 7.62257C10.9374 9.23911 11.894 10.714 13.349 11.3906V13.416C12.9042 13.2673 12.4778 13.066 12.0765 12.8123C11.9994 12.7636 11.9125 12.7398 11.8262 12.7398C11.7051 12.7398 11.585 12.7867 11.4946 12.8771L11.0631 13.3086C11.0368 13.3352 11.0057 13.3408 10.9843 13.3408C10.9629 13.3408 10.9319 13.3352 10.9046 13.3077L9.7526 12.1556C9.72461 12.1277 9.72044 12.0936 9.72044 12.0759C9.72044 12.0581 9.72461 12.024 9.7526 11.996L10.1831 11.5655C10.338 11.4105 10.365 11.1689 10.2479 10.9836C9.8874 10.4133 9.63035 9.79334 9.48387 9.14095C9.43587 8.92698 9.24584 8.77487 9.02652 8.77487H8.418C8.35768 8.77487 8.30476 8.72195 8.30476 8.66162V7.03126C8.30476 6.96985 8.3566 6.91801 8.418 6.91801H9.02652C9.24584 6.91801 9.43582 6.76591 9.48387 6.55193C9.63035 5.89954 9.88736 5.27954 10.2479 4.70927C10.365 4.52403 10.338 4.28234 10.1831 4.12738L9.75255 3.69684C9.72461 3.66891 9.72044 3.63488 9.72044 3.61706C9.72044 3.59925 9.72461 3.56522 9.7526 3.53724L10.9056 2.38424C10.9319 2.35771 10.963 2.35213 10.9843 2.35213C11.0057 2.35213 11.0368 2.35771 11.0641 2.38522L11.4946 2.81576C11.6497 2.97077 11.8914 2.99763 12.0766 2.88054C12.6461 2.52045 13.2668 2.26288 13.9211 2.11509C14.1348 2.06681 14.2866 1.87692 14.2866 1.65788V1.05072C14.2866 0.989319 14.3384 0.937476 14.3998 0.937476H16.0288C16.0902 0.937476 16.142 0.989319 16.142 1.05072V1.65797C16.142 1.87706 16.2937 2.0669 16.5074 2.11518C17.1624 2.26311 17.7823 2.52055 18.3502 2.8804C18.5355 2.99777 18.7774 2.97105 18.9326 2.8159L19.364 2.38438C19.3904 2.35785 19.4215 2.35227 19.4428 2.35227C19.4642 2.35227 19.4952 2.35785 19.5228 2.38555L20.676 3.53738C20.7039 3.56532 20.7081 3.59935 20.7081 3.61716C20.7081 3.63497 20.7039 3.669 20.6759 3.69698L20.2454 4.12752C20.0905 4.28248 20.0636 4.52417 20.1807 4.70941C20.5392 5.27673 20.7964 5.89691 20.9448 6.55286C20.9932 6.76647 21.183 6.91811 21.402 6.91811H22.0092C22.0706 6.91811 22.1225 6.96995 22.1225 7.03135V8.66167H22.1224Z" fill="black"/>
<path d="M17.942 20.6395C17.7589 20.8226 17.7589 21.1194 17.942 21.3025C18.0335 21.394 18.1535 21.4398 18.2734 21.4398C18.3934 21.4398 18.5133 21.394 18.6049 21.3025L18.6062 21.3011C18.7892 21.1181 18.7886 20.8219 18.6055 20.6389C18.4224 20.4559 18.125 20.4566 17.942 20.6395V20.6395Z" fill="black"/>
<path d="M20.1165 16.0986L16.3952 18.0097C16.0797 17.683 15.6377 17.4792 15.1487 17.4792H12.599C12.4562 17.4792 12.4213 17.4678 12.419 17.467C12.3983 17.4561 12.333 17.3947 12.2805 17.3454L12.2573 17.3236C10.1945 15.3817 8.45192 15.5048 6.47033 16.2868C6.14971 16.4134 6.14352 16.4137 5.82155 16.4274L5.245 16.4278C5.08075 15.9323 4.61333 15.5737 4.06345 15.5737H2.18869C1.50306 15.5737 0.945312 16.1321 0.945312 16.8185V21.7388C0.945312 22.4243 1.50306 22.9821 2.18869 22.9821H4.06345C4.61328 22.9821 5.08066 22.624 5.24495 22.1291H6.29961C6.39275 22.1291 6.39275 22.1291 6.50108 22.1596C6.54045 22.1707 6.58836 22.1842 6.65023 22.2008L11.5014 23.4987C11.7152 23.5564 11.9113 23.6133 12.101 23.6682C12.7226 23.8483 13.245 23.9997 13.7896 23.9997C14.405 23.9997 15.0486 23.8063 15.895 23.2422C15.899 23.2395 15.9031 23.2367 15.9072 23.2338L16.8333 22.5734C17.0441 22.4231 17.0931 22.1304 16.9428 21.9196C16.7925 21.7088 16.4997 21.6598 16.289 21.8102L15.369 22.4662C14.1408 23.2831 13.6192 23.1321 12.3619 22.7678C12.1683 22.7117 11.968 22.6536 11.7449 22.5934L6.89332 21.2955C6.83651 21.2802 6.79193 21.2676 6.75537 21.2573C6.57837 21.2074 6.51219 21.1917 6.29966 21.1917H5.30819V17.3657H5.81475C5.8215 17.3657 5.82816 17.3655 5.83491 17.3652L5.86163 17.3641C6.25457 17.3473 6.36449 17.3366 6.81457 17.1589C8.55495 16.4721 9.89835 16.3905 11.6153 18.0069L11.6385 18.0287C11.932 18.3044 12.101 18.4167 12.599 18.4167H15.1488C15.448 18.4167 15.709 18.5828 15.845 18.8276C15.8465 18.8303 15.8481 18.8329 15.8496 18.8356C15.9104 18.9479 15.945 19.0765 15.945 19.213C15.945 19.6513 15.5878 20.0079 15.1488 20.0079H11.0166C10.7577 20.0079 10.5478 20.2177 10.5478 20.4766C10.5478 20.7355 10.7577 20.9453 11.0166 20.9453H15.1488C16.1048 20.9453 16.8825 20.1682 16.8825 19.213C16.8825 19.0831 16.8676 18.9568 16.8405 18.835L20.5448 16.9326C20.8954 16.7527 21.3748 16.772 21.6129 17.1582C21.8234 17.4987 21.7076 17.9512 21.3436 18.2107L19.7186 19.368C19.5078 19.5182 19.4585 19.8108 19.6087 20.0217C19.7002 20.1501 19.8445 20.2186 19.9909 20.2186C20.085 20.2186 20.18 20.1903 20.2624 20.1316L21.8876 18.9742C22.6594 18.4239 22.884 17.4312 22.4105 16.6657C21.9449 15.91 20.9587 15.6662 20.1165 16.0986V16.0986ZM4.37066 21.7388C4.37066 21.9046 4.22999 22.0447 4.06345 22.0447H2.18869C2.02285 22.0447 1.88279 21.9046 1.88279 21.7388V16.8185C1.88279 16.6491 2.02004 16.5113 2.18869 16.5113H4.06345C4.22999 16.5113 4.37066 16.6519 4.37066 16.8185V21.7388Z" fill="black"/>
</g>
<defs>
<clipPath id="clip0_535_11564">
<rect width="24" height="24" fill="white"/>
</clipPath>
</defs>
</svg>
