<svg width="24" height="24" viewBox="0 0 24 24" fill="none" xmlns="http://www.w3.org/2000/svg">
<g clip-path="url(#clip0_535_11565)">
<path d="M9 23.25H15C15.207 23.25 15.375 23.082 15.375 22.875V19.875C15.375 18.5269 14.5785 17.3644 13.4332 16.824C14.0704 16.4096 14.5185 15.7279 14.6066 14.9276C14.6201 14.8282 14.625 14.7289 14.625 14.625C14.625 14.5391 14.6205 14.4578 14.6119 14.3846C14.4896 13.0474 13.3421 12 12 12C10.6579 12 9.51038 13.0474 9.38888 14.3764C9.3795 14.4578 9.375 14.5391 9.375 14.625C9.375 14.7289 9.37987 14.8282 9.39225 14.9171C9.48112 15.7237 9.92963 16.4085 10.5671 16.8236C9.4215 17.364 8.625 18.5269 8.625 19.875V22.875C8.625 23.082 8.793 23.25 9 23.25ZM12 12.75C12.7957 12.75 13.4891 13.2694 13.7543 13.9957C13.2308 13.6766 12.6255 13.5 12 13.5C11.3738 13.5 10.7677 13.6774 10.2439 13.9973C10.5067 13.272 11.202 12.75 12 12.75V12.75ZM10.1719 14.9977C10.6583 14.5222 11.3134 14.25 12 14.25C12.687 14.25 13.3421 14.5222 13.8285 14.9981C13.6545 15.8636 12.9004 16.5 12 16.5C11.1022 16.5 10.35 15.8674 10.1719 14.9977V14.9977ZM12.3491 20.175L12 20.6989L11.6509 20.175L12 18.6038L12.3491 20.175ZM9.375 19.875C9.375 18.591 10.3024 17.5211 11.5226 17.2958L10.884 20.1686C10.8619 20.2684 10.8814 20.373 10.938 20.4578L11.688 21.5828C11.7577 21.6874 11.8748 21.75 12 21.75C12.1252 21.75 12.2423 21.6874 12.312 21.5831L13.062 20.4581C13.1186 20.373 13.1381 20.2688 13.116 20.169L12.4774 17.2961C13.6976 17.5211 14.625 18.591 14.625 19.875V22.5H9.375V19.875Z" fill="black"/>
<path d="M10.4406 9.16687C10.3356 9.00975 10.1304 8.95537 9.96094 9.03937L7.71094 10.1644L8.04656 10.8352L10.0003 9.85837L10.5666 10.7081C10.6378 10.815 10.7563 10.875 10.8786 10.875C10.9281 10.875 10.9783 10.8653 11.0263 10.8446L13.3644 9.84262L13.9416 10.7081C14.0117 10.8131 14.1291 10.875 14.2536 10.875C14.2701 10.875 14.2866 10.8739 14.3034 10.8716C14.4452 10.8525 14.5641 10.7546 14.6094 10.6185L15.3594 8.3685C15.3977 8.25412 15.3782 8.1285 15.3077 8.03063C15.2372 7.93275 15.1239 7.875 15.0036 7.875H12.7536C12.6152 7.875 12.4881 7.95112 12.4228 8.073C12.3576 8.19487 12.3647 8.343 12.4416 8.45775L12.9414 9.20775L11.0173 10.0324L10.4406 9.16687ZM14.4834 8.625L14.1403 9.654L13.4544 8.625H14.4834Z" fill="black"/>
<path d="M15.5291 16.8529L15.9709 17.4589C17.7109 16.1914 18.75 14.1503 18.75 12C18.75 8.27812 15.7219 5.25 12 5.25C8.27812 5.25 5.25 8.27812 5.25 12C5.25 14.1503 6.28912 16.1914 8.02912 17.4589L8.47088 16.8529C6.92363 15.7256 6 13.9118 6 12C6 8.69175 8.69175 6 12 6C15.3082 6 18 8.69175 18 12C18 13.9118 17.0764 15.7256 15.5291 16.8529Z" fill="black"/>
<path d="M22.875 10.125H21.5681C21.483 9.69 21.3679 9.2595 21.2242 8.8395L22.3556 8.18625C22.5353 8.08275 22.5964 7.85325 22.4929 7.674L20.9929 5.076C20.889 4.89638 20.6603 4.83488 20.4806 4.93875L19.3478 5.59275C19.056 5.25862 18.7414 4.944 18.4072 4.65225L19.0613 3.51938C19.1648 3.33975 19.1033 3.11063 18.924 3.00713L16.326 1.50713C16.146 1.40363 15.9169 1.46513 15.8137 1.64438L15.1605 2.77575C14.7405 2.63212 14.31 2.51663 13.875 2.43188V1.125C13.875 0.918 13.707 0.75 13.5 0.75H10.5C10.293 0.75 10.125 0.918 10.125 1.125V2.43188C9.69 2.517 9.2595 2.63212 8.8395 2.77575L8.18625 1.64438C8.08237 1.46475 7.8525 1.40325 7.674 1.50713L5.076 3.00713C4.89638 3.11063 4.83525 3.34013 4.93875 3.51938L5.59275 4.65225C5.25862 4.944 4.944 5.25862 4.65225 5.59275L3.51938 4.93875C3.33938 4.83525 3.11063 4.89675 3.00713 5.076L1.50713 7.674C1.40363 7.85325 1.46513 8.08275 1.64438 8.18625L2.77575 8.8395C2.63212 9.2595 2.51663 9.69 2.43188 10.125H1.125C0.918 10.125 0.75 10.293 0.75 10.5V13.5C0.75 13.707 0.918 13.875 1.125 13.875H2.43188C2.517 14.31 2.63212 14.7405 2.77575 15.1605L1.64438 15.8137C1.46475 15.9172 1.40363 16.1467 1.50713 16.326L3.00713 18.924C3.11063 19.1033 3.33938 19.1648 3.51938 19.0613L4.65225 18.4072C4.944 18.7414 5.25862 19.056 5.59275 19.3478L4.93875 20.4806C4.83525 20.6603 4.89675 20.8894 5.076 20.9929L7.674 22.4929L8.049 21.8434L5.77575 20.5309L6.399 19.4516C6.49087 19.2922 6.45375 19.0901 6.31162 18.9739C5.8425 18.5906 5.41012 18.1583 5.02687 17.6891C4.91062 17.547 4.7085 17.5099 4.54912 17.6017L3.46988 18.225L2.34487 16.2765L3.423 15.654C3.58238 15.5617 3.65137 15.3679 3.58612 15.1961C3.3705 14.6287 3.21262 14.0385 3.11662 13.4411C3.08662 13.2585 2.92988 13.125 2.74575 13.125H1.5V10.875H2.74575C2.92988 10.875 3.08663 10.7415 3.11588 10.5596C3.21188 9.96225 3.37012 9.372 3.58537 8.80463C3.65062 8.63288 3.58163 8.43862 3.42225 8.34675L2.34412 7.72425L3.46913 5.77575L4.54837 6.399C4.70775 6.49087 4.9095 6.45375 5.02612 6.31162C5.40937 5.8425 5.84175 5.41012 6.31088 5.02687C6.453 4.91062 6.4905 4.70812 6.39825 4.54912L5.775 3.46988L7.7235 2.34487L8.346 3.423C8.43825 3.582 8.63175 3.65137 8.80387 3.58612C9.37125 3.3705 9.9615 3.21262 10.5589 3.11662C10.7415 3.08662 10.875 2.92988 10.875 2.74575V1.5H13.125V2.74575C13.125 2.92988 13.2585 3.08663 13.4404 3.11588C14.0377 3.21188 14.628 3.37012 15.1954 3.58537C15.3671 3.65062 15.5614 3.58125 15.6533 3.42225L16.2758 2.34412L18.2242 3.46913L17.601 4.54837C17.5091 4.70775 17.5462 4.90987 17.6884 5.02612C18.1575 5.40937 18.5899 5.84175 18.9731 6.31088C19.0894 6.45338 19.2919 6.4905 19.4509 6.39825L20.5301 5.775L21.6551 7.7235L20.577 8.346C20.4176 8.43825 20.3486 8.63212 20.4139 8.80387C20.6295 9.37125 20.7874 9.9615 20.8834 10.5589C20.9134 10.7415 21.0701 10.875 21.2543 10.875H22.5V13.125H21.2543C21.0701 13.125 20.9134 13.2585 20.8841 13.4404C20.7881 14.0377 20.6299 14.628 20.4146 15.1954C20.3494 15.3671 20.4184 15.5614 20.5778 15.6533L21.6559 16.2758L20.5309 18.2242L19.4516 17.601C19.2922 17.5091 19.0901 17.5459 18.9739 17.6884C18.5906 18.1575 18.1583 18.5899 17.6891 18.9731C17.547 19.0894 17.5095 19.2919 17.6017 19.4509L18.225 20.5301L15.9517 21.8426L16.3267 22.4921L18.9247 20.9921C19.1044 20.8886 19.1655 20.6591 19.062 20.4799L18.408 19.347C18.7421 19.0552 19.0568 18.7406 19.3485 18.4065L20.4814 19.0605C20.661 19.1636 20.8898 19.1021 20.9936 18.9233L22.4936 16.3253C22.5971 16.146 22.5356 15.9165 22.3564 15.813L21.225 15.1597C21.369 14.7397 21.4841 14.3093 21.5689 13.8743H22.875C23.082 13.8743 23.25 13.7063 23.25 13.4993V10.4992C23.25 10.293 23.082 10.125 22.875 10.125V10.125Z" fill="black"/>
</g>
<defs>
<clipPath id="clip0_535_11565">
<rect width="24" height="24" fill="white"/>
</clipPath>
</defs>
</svg>
