<svg width="24" height="24" viewBox="0 0 24 24" fill="none" xmlns="http://www.w3.org/2000/svg">
<g clip-path="url(#clip0_535_11561)">
<path d="M21.7324 15.5632C22.2019 15.1504 22.5 14.5478 22.5 13.875C22.5 12.6341 21.4909 11.625 20.25 11.625C19.0091 11.625 18 12.6341 18 13.875C18 14.7161 18.4646 15.45 19.1501 15.8359C18.4065 16.3129 17.8856 17.1176 17.8088 18.048L17.6576 19.875H15.75C15.1297 19.875 14.625 20.3797 14.625 21C14.625 21.6203 15.1297 22.125 15.75 22.125H17.25V23.625H23.625V18.2884C23.625 17.0415 22.8364 15.978 21.7324 15.5632V15.5632ZM20.25 12.375C21.0773 12.375 21.75 13.0477 21.75 13.875C21.75 14.7023 21.0773 15.375 20.25 15.375C19.4227 15.375 18.75 14.7023 18.75 13.875C18.75 13.0477 19.4227 12.375 20.25 12.375ZM22.875 22.875H18V22.125H18.1301C19.1066 22.125 19.9091 21.3919 19.9973 20.4199L20.2481 17.6591L19.5011 17.5912L19.2502 20.352C19.1974 20.9351 18.7159 21.375 18.1301 21.375H15.75C15.5434 21.375 15.375 21.2066 15.375 21C15.375 20.7934 15.5434 20.625 15.75 20.625H17.6576C18.048 20.625 18.369 20.3318 18.4046 19.9399L18.5561 18.1099C18.6484 16.9969 19.5949 16.125 20.7116 16.125C21.9045 16.125 22.875 17.0955 22.875 18.2884V22.875Z" fill="black"/>
<path d="M8.25 19.875L6.34275 19.878L6.19125 18.048C6.114 17.1176 5.59312 16.3129 4.84987 15.8359C5.53537 15.45 6 14.7161 6 13.875C6 12.6341 4.99088 11.625 3.75 11.625C2.50912 11.625 1.5 12.6341 1.5 13.875C1.5 14.5478 1.79812 15.1504 2.26762 15.5632C1.16362 15.978 0.375 17.0415 0.375 18.2884V23.625H6.75V22.125H8.25C8.87025 22.125 9.375 21.6203 9.375 21C9.375 20.3797 8.87025 19.875 8.25 19.875V19.875ZM3.75 12.375C4.57725 12.375 5.25 13.0477 5.25 13.875C5.25 14.7023 4.57725 15.375 3.75 15.375C2.92275 15.375 2.25 14.7023 2.25 13.875C2.25 13.0477 2.92275 12.375 3.75 12.375ZM8.25 21.375H5.86987C5.28412 21.375 4.80263 20.9351 4.74975 20.352L4.49887 17.5912L3.75188 17.6591L4.00275 20.4199C4.09087 21.3919 4.89337 22.125 5.86987 22.125H6V22.875H1.125V18.2884C1.125 17.0955 2.0955 16.125 3.28838 16.125C4.40512 16.125 5.352 16.9969 5.44425 18.1099L5.59575 19.9429C5.631 20.3317 5.952 20.625 6.34238 20.625H8.25C8.45662 20.625 8.625 20.7934 8.625 21C8.625 21.2066 8.45662 21.375 8.25 21.375V21.375Z" fill="black"/>
<path d="M15.4084 13.9373C15.4474 13.8521 15.4834 13.7666 15.5156 13.6804L16.5 13.4111V11.3389L15.5156 11.0696C15.4834 10.9837 15.4478 10.8979 15.4084 10.8127L15.9146 9.9255L15.3195 9.33038C15.3525 9.22538 15.375 9.11587 15.375 9C15.375 8.57475 15.135 8.208 14.7859 8.01712L15.7012 6.18637C15.906 5.77612 16.0384 5.32988 16.0942 4.875H16.6627L18 7.104L19.2371 5.0415C19.299 4.93875 19.4119 4.875 19.5315 4.875C19.7209 4.875 19.875 5.02913 19.875 5.2185V7.875H20.625V5.2185C20.625 4.6155 20.1345 4.125 19.5315 4.125C19.1494 4.125 18.7905 4.32825 18.594 4.656L18 5.646L17.0873 4.125H16.1115C15.9739 2.03475 14.2339 0.375 12.1095 0.375H11.8905C9.76613 0.375 8.02612 2.03475 7.8885 4.125H6.91275L6 5.646L5.406 4.656C5.2095 4.32825 4.85025 4.125 4.4685 4.125C3.8655 4.125 3.375 4.6155 3.375 5.2185V7.875H4.125V5.2185C4.125 5.02913 4.27913 4.875 4.4685 4.875C4.5885 4.875 4.70138 4.93875 4.76288 5.04187L6 7.104L7.33725 4.875H7.90575C7.96163 5.33025 8.094 5.7765 8.29875 6.18637L9.21412 8.01712C8.865 8.208 8.625 8.57475 8.625 9C8.625 9.11587 8.6475 9.22537 8.6805 9.33075L8.08538 9.92587L8.59162 10.8131C8.55262 10.8982 8.51663 10.9838 8.48438 11.07L7.5 11.3389V13.4111L8.48438 13.68C8.51663 13.7662 8.55262 13.8518 8.59162 13.9369L8.08538 14.8241L9.55087 16.2896L10.4381 15.7834C10.5232 15.8224 10.6088 15.8584 10.695 15.8906L10.9639 16.875H13.0361L13.305 15.8906C13.3912 15.8584 13.4768 15.8224 13.5619 15.7834L14.4491 16.2896L15.9146 14.8241L15.4084 13.9373ZM13.5 12.375C13.5 13.2023 12.8273 13.875 12 13.875C11.1727 13.875 10.5 13.2023 10.5 12.375C10.5 12.2276 10.5217 12.0829 10.563 11.9441C10.9762 12.2156 11.4697 12.375 12 12.375C12.5303 12.375 13.0238 12.2156 13.4366 11.9441C13.4783 12.0829 13.5 12.2276 13.5 12.375ZM9.75 8.625H14.25C14.4566 8.625 14.625 8.79338 14.625 9C14.625 9.20662 14.4566 9.375 14.25 9.375H9.75C9.54338 9.375 9.375 9.20662 9.375 9C9.375 8.79338 9.54338 8.625 9.75 8.625ZM12 11.625C11.0947 11.625 10.3372 10.9796 10.1629 10.125H13.8371C13.6627 10.9796 12.9053 11.625 12 11.625ZM8.625 4.3905C8.625 2.58975 10.0898 1.125 11.8905 1.125H12.1095C13.9102 1.125 15.375 2.58975 15.375 4.3905C15.375 4.89488 15.2558 5.39962 15.0304 5.85112L14.0182 7.875H12.375V5.94675C13.02 5.77912 13.5 5.19675 13.5 4.5C13.5 3.67275 12.8273 3 12 3C11.1727 3 10.5 3.67275 10.5 4.5C10.5 5.19675 10.98 5.77912 11.625 5.94675V7.875H9.98175L8.96963 5.85112C8.74425 5.39962 8.625 4.89488 8.625 4.3905V4.3905ZM12 5.25C11.5864 5.25 11.25 4.91363 11.25 4.5C11.25 4.08637 11.5864 3.75 12 3.75C12.4136 3.75 12.75 4.08637 12.75 4.5C12.75 4.91363 12.4136 5.25 12 5.25ZM14.3235 15.3547L13.5814 14.9314L13.3991 15.0274C13.2307 15.1163 13.0579 15.1886 12.885 15.2419L12.6881 15.3026L12.4639 16.125H11.5361L11.3111 15.3026L11.1143 15.2419C10.9418 15.1886 10.7685 15.1166 10.5998 15.0274L10.4179 14.9314L9.67612 15.3544L9.01987 14.6985L9.44325 13.9564L9.34725 13.7741C9.25838 13.6057 9.186 13.4329 9.13275 13.26L9.072 13.0631L8.25 12.8389V11.9111L9.07238 11.6861L9.13312 11.4893C9.18637 11.3168 9.25838 11.1435 9.34763 10.9748L9.44363 10.7929L9.02063 10.0511L9.13312 9.93863C9.21337 9.9915 9.30263 10.0309 9.39563 10.062C9.456 10.5698 9.66075 11.0336 9.969 11.4101C9.82612 11.7105 9.75 12.0386 9.75 12.375C9.75 13.6159 10.7591 14.625 12 14.625C13.2409 14.625 14.25 13.6159 14.25 12.375C14.25 12.0382 14.1739 11.7105 14.031 11.4105C14.3396 11.034 14.544 10.5698 14.6047 10.0624C14.6977 10.0313 14.7866 9.99187 14.8672 9.939L14.9797 10.0515L14.5568 10.7932L14.6528 10.9751C14.7416 11.1439 14.814 11.3167 14.8672 11.4896L14.928 11.6865L15.7504 11.9115V12.8392L14.928 13.0639L14.8672 13.2607C14.814 13.4332 14.742 13.6061 14.6528 13.7749L14.5568 13.9571L14.9801 14.6993L14.3235 15.3547Z" fill="black"/>
<path d="M19.875 10.125H20.625V10.875H19.875V10.125Z" fill="black"/>
<path d="M19.875 8.625H20.625V9.375H19.875V8.625Z" fill="black"/>
<path d="M3.375 10.125H4.125V10.875H3.375V10.125Z" fill="black"/>
<path d="M3.375 8.625H4.125V9.375H3.375V8.625Z" fill="black"/>
</g>
<defs>
<clipPath id="clip0_535_11561">
<rect width="24" height="24" fill="white"/>
</clipPath>
</defs>
</svg>
