<svg width="24" height="24" viewBox="0 0 24 24" fill="none" xmlns="http://www.w3.org/2000/svg">
<g clip-path="url(#clip0_535_11566)">
<path d="M15.4099 18.0765L14.4596 18.0131L14.2005 17.625H14.25C15.582 17.625 16.683 16.6267 16.8506 15.3397C17.7169 15.1747 18.375 14.4139 18.375 13.5C18.375 12.5947 17.7296 11.8372 16.875 11.6629V10.875H7.125V11.6629C6.27037 11.8372 5.625 12.5944 5.625 13.5C5.625 14.4139 6.28313 15.1747 7.14938 15.3397C7.317 16.6267 8.418 17.625 9.75 17.625H9.7995L9.54075 18.0131L8.5905 18.0765C5.87625 18.2576 3.75 20.5301 3.75 23.25V23.625H20.25V23.25C20.25 20.5301 18.1237 18.2576 15.4099 18.0765ZM14.3749 18.759L14.5534 18.771L14.3107 21.4395L12.6131 20.2271L14.3749 18.759ZM17.625 13.5C17.625 13.9883 17.3104 14.4008 16.875 14.556V12.4444C17.3104 12.5993 17.625 13.0117 17.625 13.5ZM6.375 13.5C6.375 13.0117 6.68962 12.5992 7.125 12.444V14.5556C6.68962 14.4007 6.375 13.9883 6.375 13.5ZM7.875 15V11.625H16.125V15C16.125 16.0339 15.2839 16.875 14.25 16.875H9.75C8.71613 16.875 7.875 16.0339 7.875 15ZM13.2994 17.625L13.7512 18.3026L12 19.7621L10.2491 18.3026L10.7006 17.625H13.2994ZM11.3869 20.2271L9.68925 21.4395L9.44662 18.771L9.62512 18.759L11.3869 20.2271ZM17.5676 22.875L17.2448 20.9381L16.5049 21.0615L16.8075 22.875H7.1925L7.49475 21.0619L6.75488 20.9385L6.43237 22.875H4.51575C4.69875 20.718 6.44475 18.9713 8.64 18.8246L8.69812 18.8209L9.06075 22.8105L12 20.7109L14.9393 22.8105L15.3019 18.8209L15.36 18.8246C17.5552 18.9713 19.3013 20.718 19.4843 22.875H17.5676Z" fill="black"/>
<path d="M16.875 3.75C16.875 1.88925 15.3611 0.375 13.5 0.375H10.5C8.63888 0.375 7.125 1.88925 7.125 3.75V10.125H16.875V3.75ZM11.625 5.25C11.625 5.04338 11.793 4.875 12 4.875C12.207 4.875 12.375 5.04338 12.375 5.25C12.375 5.45662 12.207 5.625 12 5.625C11.793 5.625 11.625 5.45662 11.625 5.25ZM12.375 6.306C12.8104 6.15075 13.125 5.73825 13.125 5.25C13.125 4.62975 12.6203 4.125 12 4.125C11.3797 4.125 10.875 4.62975 10.875 5.25C10.875 5.73825 11.1896 6.15075 11.625 6.306V9.375H11.2324C11.1495 8.51287 10.7764 7.713 10.1801 7.13962C9.57562 6.55837 9.29025 5.74312 9.3975 4.90312C9.54712 3.72675 10.5128 2.77612 11.6925 2.64262C12.4523 2.55525 13.1831 2.787 13.7479 3.29138C14.3051 3.78938 14.625 4.50337 14.625 5.25C14.625 5.93325 14.3636 6.57975 13.8885 7.07138C13.2491 7.7325 12.8606 8.53762 12.7706 9.375H12.375V6.306ZM16.125 9.375H13.5281C13.6155 8.7345 13.9252 8.11237 14.4274 7.59262C15.0386 6.96075 15.375 6.12862 15.375 5.25C15.375 4.29 14.964 3.37237 14.2474 2.73225C13.5319 2.09287 12.5711 1.7895 11.6081 1.8975C10.0886 2.06925 8.84625 3.29362 8.65313 4.80862C8.51588 5.88638 8.88263 6.93338 9.66 7.68038C10.1111 8.11425 10.3969 8.718 10.4756 9.37537H7.875V3.75C7.875 2.3025 9.05288 1.125 10.5 1.125H13.5C14.9471 1.125 16.125 2.3025 16.125 3.75V9.375Z" fill="black"/>
<path d="M10.125 14.25C10.125 15.2839 10.9661 16.125 12 16.125C13.0339 16.125 13.875 15.2839 13.875 14.25V13.875H10.125V14.25ZM13.0609 14.625C12.906 15.0615 12.489 15.375 12 15.375C11.511 15.375 11.094 15.0615 10.9391 14.625H13.0609Z" fill="black"/>
<path d="M22.5 9.375C22.0117 9.375 21.5992 9.68962 21.444 10.125H19.6553L18.9053 9.375H17.625V10.125H18.5947L19.3447 10.875H21.444C21.5992 11.3104 22.0117 11.625 22.5 11.625C23.1203 11.625 23.625 11.1203 23.625 10.5C23.625 9.87975 23.1203 9.375 22.5 9.375ZM22.5 10.875C22.293 10.875 22.125 10.7066 22.125 10.5C22.125 10.2934 22.293 10.125 22.5 10.125C22.707 10.125 22.875 10.2934 22.875 10.5C22.875 10.7066 22.707 10.875 22.5 10.875Z" fill="black"/>
<path d="M21 8.625C21.6203 8.625 22.125 8.12025 22.125 7.5C22.125 6.87975 21.6203 6.375 21 6.375C20.5117 6.375 20.0992 6.68962 19.944 7.125H17.625V7.875H19.944C20.0992 8.31038 20.5117 8.625 21 8.625ZM21 7.125C21.207 7.125 21.375 7.29338 21.375 7.5C21.375 7.70662 21.207 7.875 21 7.875C20.793 7.875 20.625 7.70662 20.625 7.5C20.625 7.29338 20.793 7.125 21 7.125Z" fill="black"/>
<path d="M19.7006 4.875H21.444C21.5992 5.31038 22.0117 5.625 22.5 5.625C23.1203 5.625 23.625 5.12025 23.625 4.5C23.625 3.87975 23.1203 3.375 22.5 3.375C22.0117 3.375 21.5992 3.68962 21.444 4.125H19.2994L18.5494 5.25H17.625V6H18.9506L19.7006 4.875ZM22.5 4.125C22.707 4.125 22.875 4.29338 22.875 4.5C22.875 4.70662 22.707 4.875 22.5 4.875C22.293 4.875 22.125 4.70662 22.125 4.5C22.125 4.29338 22.293 4.125 22.5 4.125Z" fill="black"/>
<path d="M3 6.375C2.37975 6.375 1.875 6.87975 1.875 7.5C1.875 8.12025 2.37975 8.625 3 8.625C3.48825 8.625 3.90075 8.31038 4.056 7.875H6.375V7.125H4.056C3.90075 6.68962 3.48825 6.375 3 6.375V6.375ZM3 7.875C2.793 7.875 2.625 7.70662 2.625 7.5C2.625 7.29338 2.793 7.125 3 7.125C3.207 7.125 3.375 7.29338 3.375 7.5C3.375 7.70662 3.207 7.875 3 7.875Z" fill="black"/>
<path d="M1.5 5.625C1.98825 5.625 2.40075 5.31038 2.556 4.875H4.29938L5.04938 6H6.375V5.25H5.45062L4.70062 4.125H2.556C2.40075 3.68962 1.98825 3.375 1.5 3.375C0.87975 3.375 0.375 3.87975 0.375 4.5C0.375 5.12025 0.87975 5.625 1.5 5.625ZM1.5 4.125C1.707 4.125 1.875 4.29338 1.875 4.5C1.875 4.70662 1.707 4.875 1.5 4.875C1.293 4.875 1.125 4.70662 1.125 4.5C1.125 4.29338 1.293 4.125 1.5 4.125Z" fill="black"/>
<path d="M4.65525 10.875L5.40525 10.125H6.375V9.375H5.09475L4.34475 10.125H2.556C2.40075 9.68962 1.98825 9.375 1.5 9.375C0.87975 9.375 0.375 9.87975 0.375 10.5C0.375 11.1203 0.87975 11.625 1.5 11.625C1.98825 11.625 2.40075 11.3104 2.556 10.875H4.65525ZM1.5 10.875C1.293 10.875 1.125 10.7066 1.125 10.5C1.125 10.2934 1.293 10.125 1.5 10.125C1.707 10.125 1.875 10.2934 1.875 10.5C1.875 10.7066 1.707 10.875 1.5 10.875Z" fill="black"/>
</g>
<defs>
<clipPath id="clip0_535_11566">
<rect width="24" height="24" fill="white"/>
</clipPath>
</defs>
</svg>
