<svg width="227" height="63" viewBox="0 0 227 63" fill="none" xmlns="http://www.w3.org/2000/svg">
<path d="M18.0226 22.1426L9.51132 27.7853L18.0226 33.4279L9.51132 39.0705L1 33.3809L9.51132 27.7382L1 22.1426L9.51132 16.5L18.0226 22.1426ZM9.46605 40.8574L17.9774 35.2147L26.4887 40.8574L17.9774 46.5L9.46605 40.8574ZM18.0226 33.3809L26.534 27.7382L18.0226 22.1426L26.4887 16.5L35 22.1426L26.4887 27.7853L35 33.4279L26.4887 39.0705L18.0226 33.3809Z" fill="#0061FF"/>
<path d="M52 12.0978H63.2929C70.4996 12.0978 76.4432 16.6439 76.4432 27.0351V29.2269C76.4432 39.6993 70.8711 44.4077 63.5158 44.4077H52V12.0978ZM58.3151 17.9428V38.4816H63.1443C67.2306 38.4816 69.9795 35.559 69.9795 29.0646V27.3598C69.9795 20.8653 67.082 17.9428 62.9214 17.9428H58.3151ZM79.7865 18.2675H84.8386L85.6559 24.3561C86.6217 20.2159 89.0734 18.024 93.5312 18.024H95.0914V25.0055H92.491C87.3646 25.0055 86.1016 26.9539 86.1016 32.4742V44.4889H79.8608V18.2675H79.7865ZM96.3544 31.9059V31.1753C96.3544 22.4078 101.481 17.6181 108.465 17.6181C115.597 17.6181 120.575 22.4078 120.575 31.1753V31.9059C120.575 40.5111 115.746 45.1384 108.465 45.1384C100.738 45.0572 96.3544 40.5111 96.3544 31.9059ZM114.185 31.8247V31.1753C114.185 26.3044 111.956 23.3819 108.39 23.3819C104.898 23.3819 102.595 26.0609 102.595 31.1753V31.8247C102.595 36.5332 104.824 39.2122 108.39 39.2122C111.956 39.131 114.185 36.5332 114.185 31.8247ZM123.844 18.2675H129.044L129.639 23.2196C130.902 19.8911 133.576 17.6181 137.514 17.6181C143.606 17.6181 147.618 22.4077 147.618 31.2565V31.9871C147.618 40.5923 143.161 45.1384 137.514 45.1384C133.725 45.1384 131.125 43.2712 129.862 40.2675V53.5H123.769L123.844 18.2675ZM141.303 31.8247V31.2565C141.303 26.0609 138.851 23.4631 135.582 23.4631C132.091 23.4631 129.787 26.3856 129.787 31.2565V31.7435C129.787 36.3708 132.016 39.2934 135.508 39.2934C139.074 39.2122 141.303 36.6956 141.303 31.8247ZM156.831 39.6181L156.311 44.4077H150.962V9.5H157.054V22.8948C158.391 19.4852 161.066 17.6181 164.855 17.6181C170.576 17.6993 174.81 22.0018 174.81 30.6882V31.5C174.81 40.1863 170.798 45.1384 164.706 45.1384C160.694 45.0572 158.094 43.0277 156.831 39.6181ZM168.421 31.5V30.8506C168.421 26.0609 166.044 23.3819 162.7 23.3819C159.283 23.3819 156.905 26.3856 156.905 30.9317V31.5C156.905 36.3709 159.208 39.2122 162.626 39.2122C166.266 39.2122 168.421 36.6956 168.421 31.5ZM177.485 31.9059V31.1753C177.485 22.4078 182.611 17.6181 189.595 17.6181C196.728 17.6181 201.705 22.4078 201.705 31.1753V31.9059C201.705 40.5111 196.802 45.1384 189.595 45.1384C181.868 45.0572 177.485 40.5111 177.485 31.9059ZM195.39 31.8247V31.1753C195.39 26.3044 193.161 23.3819 189.595 23.3819C186.103 23.3819 183.8 26.0609 183.8 31.1753V31.8247C183.8 36.5332 186.029 39.2122 189.595 39.2122C193.161 39.131 195.39 36.5332 195.39 31.8247ZM209.878 30.8506L201.482 18.2675H208.689L213.518 26.1421L218.422 18.2675H225.554L217.01 30.7694L226 44.4077H218.942L213.444 35.7214L208.095 44.4077H200.74L209.878 30.8506Z" fill="black"/>
</svg>
