<svg width="258" height="51" viewBox="0 0 258 51" fill="none" xmlns="http://www.w3.org/2000/svg">
<path d="M126.742 39.8952H128.201L135.719 47.4808V39.8952H137.008V49.0947H135.785L128.032 41.2852V49.0947H126.742V39.8952V39.8952Z" fill="#61849C"/>
<path d="M140.195 39.8952H148.508V40.8269H141.535V43.8672H148.339V44.7869H141.535V48.2008H148.577V49.0947H140.195V39.8952Z" fill="#61849C"/>
<path d="M155.271 40.8254H150.555V39.8937H161.329V40.8254H156.613V49.0947H155.271V40.8254Z" fill="#61849C"/>
<path d="M162.906 39.8952H164.281L167.588 47.505L170.965 39.8952H172.118L175.477 47.505L178.803 39.8952H180.093L176.054 49.1567H174.903L171.509 41.497L168.131 49.1567H166.962L162.906 39.8952V39.8952Z" fill="#61849C"/>
<path d="M192.629 44.506C192.629 42.0224 191.052 40.6822 187.623 40.6822C184.212 40.6822 182.652 42.0224 182.652 44.506C182.652 47.0018 184.212 48.3435 187.623 48.3435C191.052 48.3435 192.629 47.0018 192.629 44.506ZM181.312 44.4939C181.312 41.2162 183.603 39.752 187.623 39.752C191.661 39.752 193.968 41.2162 193.968 44.4939C193.968 47.7838 191.661 49.2495 187.623 49.2495C183.603 49.2495 181.312 47.7838 181.312 44.4939" fill="#61849C"/>
<path d="M202.134 44.4545C203.915 44.4545 205.017 44.0567 205.017 42.6046C205.017 41.1767 203.949 40.8046 202.084 40.8046H197.994V44.4545H202.134V44.4545ZM201.762 45.3484H197.994V49.0981H196.688V39.8986H202.117C205.036 39.8986 206.359 40.7547 206.359 42.5804C206.359 44.1686 205.323 45.1004 203.134 45.3106L206.17 49.0981H204.746L201.762 45.3484V45.3484Z" fill="#61849C"/>
<path d="M213.052 44.2185L210.541 46.2288V49.0981H209.234V39.8986H210.541V44.9763L216.903 39.8986H218.447L213.934 43.5107L219.058 49.0981H217.547L213.052 44.2185V44.2185Z" fill="#61849C"/>
<path d="M220.172 48.1669L220.85 47.4227C222.359 48.117 223.836 48.353 225.345 48.353C227.941 48.353 229.095 47.819 229.095 46.553C229.095 45.2491 227.602 45.0631 225.345 44.7651C222.631 44.4172 220.798 44.0814 220.798 42.2209C220.798 40.4437 222.359 39.7494 225.345 39.7494C227.315 39.7494 228.723 40.0716 229.723 40.5692L229.01 41.3633C228.111 40.9292 226.771 40.6433 225.345 40.6433C223.09 40.6433 222.123 41.1031 222.123 42.1952C222.123 43.3629 223.429 43.5853 225.67 43.8833C228.417 44.2433 230.401 44.5412 230.401 46.5152C230.401 48.3409 228.807 49.2212 225.38 49.2212C223.481 49.2212 221.765 48.9368 220.172 48.1669" fill="#61849C"/>
<path d="M243.549 1.87478C225.875 1.87478 225.125 7.66949 225.125 15.845V35.9155H229.292V15.845C229.292 9.68275 228.959 4.74113 243.549 4.74113C245.112 4.74113 246.499 4.80163 247.747 4.90902V2.00334C246.46 1.92015 245.071 1.87478 243.549 1.87478" fill="#231F20"/>
<path d="M37.4062 22.8621V2.5466H41.6579V22.9227C41.6579 28.7794 41.5752 33.721 56.246 33.721C70.8342 33.721 70.5014 28.7794 70.5014 22.6171V2.5466H74.6703V22.6171C74.6703 30.7926 73.918 36.5889 56.246 36.5889C38.4893 36.5889 37.4062 30.7926 37.4062 22.8621" fill="#231F20"/>
<path d="M119.02 15.6V35.9155H114.768V15.5395C114.768 9.68274 114.851 4.74112 100.18 4.74112C85.5898 4.74112 85.9247 9.68274 85.9247 15.845V35.9155H81.7578V15.845C81.7578 7.66949 82.5081 1.87477 100.18 1.87477C117.937 1.87477 119.02 7.66949 119.02 15.6" fill="#231F20"/>
<path d="M126.719 2.60141H130.799V35.9102H126.719V2.60141Z" fill="#231F20"/>
<path d="M159.799 21.3463C167.162 21.3463 170.82 18.7204 170.82 13.4158C170.82 8.11419 166.872 5.59573 159.617 5.59573H142.51V21.3463H159.799V21.3463ZM138.43 2.60686H159.737C170.303 2.60686 175.094 6.45034 175.094 13.2827C175.094 20.1604 170.365 24.3412 159.679 24.3412H142.51V35.9155H138.43V2.60686V2.60686Z" fill="#231F20"/>
<path d="M184.067 16.8795H215.077C214.662 10.2301 214.077 4.55644 200.822 4.55644C188.069 4.55644 184.568 9.62057 184.067 16.8795ZM179.898 19.1378C179.898 9.31654 183.735 1.75059 200.908 1.75059C218.663 1.75059 219.246 10.4737 219.163 19.6853H183.985C184.067 27.8003 186.816 33.8401 201.239 33.8401C208.909 33.8401 212.411 32.3139 216.162 30.3022L218.494 32.5589C214.327 34.8157 209.41 36.5854 201.239 36.5854C183.234 36.5854 179.898 28.959 179.898 19.1378" fill="#231F20"/>
<path d="M11.8275 43.145C29.4995 43.145 30.2518 37.3503 30.2518 29.1748V2.54721H26.0829V29.1748C26.0829 35.3355 26.4157 40.2787 11.8275 40.2787C11.2756 40.2787 10.7527 40.2681 10.2422 40.253V43.1299C10.7548 43.139 11.2818 43.145 11.8275 43.145" fill="#231F20"/>
<path d="M238.457 32.1223C237.075 32.1223 235.95 32.9451 235.95 33.9555C235.95 34.9659 237.075 35.7888 238.457 35.7888C239.836 35.7888 240.96 34.9659 240.96 33.9555C240.96 32.9451 239.836 32.1223 238.457 32.1223ZM238.457 36.061C236.87 36.061 235.578 35.1172 235.578 33.9555C235.578 32.7954 236.87 31.85 238.457 31.85C240.045 31.85 241.332 32.7954 241.332 33.9555C241.332 35.1172 240.045 36.061 238.457 36.061Z" fill="#231F20"/>
<path d="M238.731 33.9342C239.182 33.9342 239.442 33.8389 239.442 33.485C239.442 33.1356 239.19 33.0554 238.717 33.0554H237.706V33.9342H238.731ZM238.628 34.2368H237.706V35.167H237.266V32.7484H238.737C239.574 32.7484 239.897 32.9995 239.897 33.4774C239.897 33.8677 239.669 34.1369 239.099 34.2141L239.845 35.167H239.368L238.628 34.2368V34.2368Z" fill="#231F20"/>
</svg>
