<svg width="147" height="152" viewBox="0 0 147 152" fill="none" xmlns="http://www.w3.org/2000/svg">
<path fill-rule="evenodd" clip-rule="evenodd" d="M63.3965 105.634L50.991 118.509L121.92 118.622V103.886H87.4474V103.303L99.4328 91.1067C105.071 85.7785 109.441 81.2134 112.541 77.4116C115.64 73.5819 117.792 70.0992 118.994 66.9633C120.223 63.8274 120.838 60.6499 120.838 57.4308C120.838 52.5189 119.622 48.162 117.19 44.3601C114.759 40.5582 111.351 37.5888 106.969 35.452C102.613 33.2874 97.4953 32.2051 91.6162 32.2051L91.6136 32.2046C91.6128 32.2046 91.6125 32.2046 91.6125 32.2047C91.6125 32.2047 91.6144 32.2047 91.6162 32.2051L91.496 46.483C93.9011 46.483 96.0523 46.9826 97.9496 47.9816C99.847 48.9529 101.343 50.3543 102.439 52.1859C103.535 53.9897 104.083 56.1404 104.083 58.638C104.083 60.8858 103.642 62.981 102.76 64.9236C101.878 66.8384 100.582 68.7949 98.8716 70.7929C97.188 72.791 95.1036 75.0388 92.6183 77.5364L63.3965 105.634ZM64.0597 47.7179L30.3481 118.515H48.0973L81.8487 47.3386V32.2099H24.7891V47.1279H64.0597V47.7179Z" fill="black"/>
<path fill-rule="evenodd" clip-rule="evenodd" d="M84.3535 0H4H0V4V95.3215H4V4H84.3535V0ZM109.162 4H142.37V32.2027H146.37V4V0H142.37H109.162V4ZM142.37 57.9654V148H52.099V152H142.37H146.37V148V57.9654H142.37ZM4 148H27.2905V152H4H0V148V121.084H4V148Z" fill="black"/>
</svg>
